<svg width="200" height="200" viewBox="0 0 200 200" fill="none" xmlns="http://www.w3.org/2000/svg">
<path d="M100.488 187.948C84.6157 187.948 70.0792 184.02 56.8785 176.162C43.8349 168.304 33.3843 157.697 25.5267 144.339C17.8263 130.981 13.9761 116.209 13.9761 100.022C13.9761 83.8353 17.8263 69.0631 25.5267 55.7052C33.3843 42.3473 43.8349 31.7395 56.8785 23.882C70.0792 15.8672 84.6157 11.8599 100.488 11.8599C116.36 11.8599 130.818 15.8672 143.862 23.882C157.063 31.7395 167.513 42.3473 175.214 55.7052C183.071 69.0631 187 83.8353 187 100.022C187 116.209 183.071 130.981 175.214 144.339C167.513 157.697 157.063 168.304 143.862 176.162C130.818 184.02 116.36 187.948 100.488 187.948ZM100.488 177.341C116.36 177.341 129.797 169.797 140.797 154.711C151.955 139.624 157.534 121.395 157.534 100.022C157.534 78.6493 151.955 60.4197 140.797 45.3332C129.797 30.2466 116.36 22.7033 100.488 22.7033C84.7729 22.7033 71.3364 30.2466 60.1787 45.3332C49.0209 60.4197 43.442 78.6493 43.442 100.022C43.442 121.395 49.0209 139.624 60.1787 154.711C71.3364 169.797 84.7729 177.341 100.488 177.341Z" fill="#DF9BE5"/>
<path d="M141.872 97.0363C142.702 97.9145 142.641 100.27 141.452 100.794C121.916 101.865 105.574 116.732 104.303 136.585C104.22 137.413 104.257 138.191 103.625 138.739C102.937 139.276 101.55 139.342 100.689 138.936C100.173 138.695 99.9179 138.258 99.813 137.66C98.9129 117.713 82.8418 101.834 62.9408 100.93C61.9708 100.768 61.5819 99.765 61.5819 98.8649C61.5622 97.7201 61.9686 96.7566 63.0828 96.6015C82.4725 95.6839 98.382 80.4714 99.6928 61.0205C99.778 60.1838 99.73 59.4082 100.348 58.8423C101.198 58.1563 103.289 58.1476 103.92 59.1547C105.277 78.7848 119.452 94.9192 139.488 96.4551C140.275 96.525 141.345 96.5119 141.848 97.0144L141.872 97.0363Z" fill="#DF9BE5"/>
</svg>
