<svg width="292" height="48" viewBox="0 0 292 48" fill="none" xmlns="http://www.w3.org/2000/svg">
<path d="M23.488 47.424C19.1787 47.424 15.232 46.3573 11.648 44.224C8.10667 42.1333 5.26933 39.296 3.136 35.712C1.04533 32.1707 0 28.2453 0 23.936C0 19.584 1.04533 15.6373 3.136 12.096C5.26933 8.55467 8.10667 5.73867 11.648 3.648C15.232 1.51466 19.1787 0.447998 23.488 0.447998H40.064L41.216 11.52C40.2773 9.00267 38.5707 6.99733 36.096 5.504C33.664 4.01067 31.1467 3.264 28.544 3.264H23.552V3.328C19.2427 3.328 15.5733 5.33333 12.544 9.344C9.51467 13.3547 8 18.2187 8 23.936C8 29.6107 9.49333 34.3253 12.48 38.08C15.936 42.4747 20.3947 44.672 25.856 44.672C28.928 44.672 31.6373 44.1813 33.984 43.2C36.3733 42.2187 38.2507 41.216 39.616 40.192L41.664 38.72C39.488 41.408 36.8213 43.52 33.664 45.056C30.5493 46.6347 27.1573 47.424 23.488 47.424Z" fill="#DF9BE5"/>
<path d="M68.363 47.808C64.0537 47.808 60.107 46.7413 56.523 44.608C52.9817 42.4747 50.1443 39.5947 48.011 35.968C45.9203 32.3413 44.875 28.3307 44.875 23.936C44.875 19.5413 45.9203 15.5307 48.011 11.904C50.1443 8.27733 52.9817 5.39733 56.523 3.264C60.107 1.088 64.0537 0 68.363 0C72.6723 0 76.5977 1.088 80.139 3.264C83.723 5.39733 86.5603 8.27733 88.651 11.904C90.7843 15.5307 91.851 19.5413 91.851 23.936C91.851 28.3307 90.7843 32.3413 88.651 35.968C86.5603 39.5947 83.723 42.4747 80.139 44.608C76.5977 46.7413 72.6723 47.808 68.363 47.808ZM68.363 44.928C72.6723 44.928 76.3203 42.88 79.307 38.784C82.3363 34.688 83.851 29.7387 83.851 23.936C83.851 18.1333 82.3363 13.184 79.307 9.088C76.3203 4.992 72.6723 2.944 68.363 2.944C64.0963 2.944 60.4483 4.992 57.419 9.088C54.3897 13.184 52.875 18.1333 52.875 23.936C52.875 29.7387 54.3897 34.688 57.419 38.784C60.4483 42.88 64.0963 44.928 68.363 44.928Z" fill="#DF9BE5"/>
<path d="M125.399 22.72H95.0625L97.3665 19.904H127.639L125.399 22.72Z" fill="#DF9BE5"/>
<path d="M145.148 47.808C143.57 47.808 141.927 47.616 140.221 47.232C138.514 46.848 136.914 46.656 135.421 46.656C134.183 46.656 133.031 46.912 131.964 47.424L130.812 36.352L131.837 37.632C133.714 40.1493 136.167 42.1547 139.197 43.648C140.946 44.5013 142.994 44.928 145.34 44.928C147.858 44.8 149.799 43.904 151.165 42.24C152.573 40.6187 153.277 38.784 153.277 36.736C153.277 35.2853 152.892 33.92 152.124 32.64C151.399 31.3173 150.247 30.272 148.669 29.504L138.236 24.448C135.762 23.2107 133.927 21.568 132.732 19.52C131.538 17.4293 130.941 15.2533 130.941 12.992C130.941 9.96267 131.922 7.18933 133.885 4.672C136.317 1.55733 140.071 0 145.148 0C146.812 0 148.562 0.192 150.396 0.576C152.231 0.917332 153.895 1.088 155.389 1.088C156.583 1.088 157.629 0.874664 158.525 0.447998L159.613 11.52L158.46 10.24C157.65 9.344 156.583 8.34133 155.26 7.232C153.938 6.12267 152.402 5.14133 150.652 4.288C148.903 3.392 147.047 2.944 145.085 2.944C142.695 3.02933 140.839 3.86133 139.516 5.44C138.236 6.976 137.596 8.68267 137.596 10.56C137.596 11.9253 137.938 13.2267 138.62 14.464C139.346 15.7013 140.455 16.6827 141.949 17.408L152.764 22.592C155.282 23.872 157.159 25.6 158.396 27.776C159.634 29.9093 160.253 32.1493 160.253 34.496C160.253 37.3547 159.378 40.0213 157.628 42.496C155.111 46.0373 150.951 47.808 145.148 47.808Z" fill="#DF9BE5"/>
<path d="M179.501 47.424H163.438C166.126 45.2907 167.469 42.688 167.469 39.616V8.256C167.469 5.14133 166.126 2.53867 163.438 0.447998H182.829C185.859 0.447998 188.44 1.51466 190.574 3.648C192.707 5.78133 193.773 8.36267 193.773 11.392C193.773 15.1893 192.131 18.2187 188.846 20.48C187.95 21.0773 186.797 21.5253 185.389 21.824C184.024 22.1227 182.787 22.272 181.678 22.272H177.326L178.158 22.144C178.755 22.0587 179.459 21.824 180.27 21.44C181.123 21.056 181.955 20.48 182.766 19.712C183.619 18.9013 184.323 17.8347 184.878 16.512C185.475 15.1467 185.773 13.44 185.773 11.392C185.773 9.13067 184.984 7.21067 183.406 5.632C181.827 4.05333 179.928 3.264 177.71 3.264H175.469V39.616C175.469 42.688 176.813 45.2907 179.501 47.424Z" fill="#DF9BE5"/>
<path d="M237.448 47.424H197C199.688 45.3333 201.032 42.7307 201.032 39.616V8.32C201.032 5.20533 199.688 2.60266 197 0.511997H213.064C210.376 2.60266 209.032 5.20533 209.032 8.32V44.608H225.928C228.531 44.608 231.048 43.8613 233.48 42.368C235.955 40.8747 237.661 38.8693 238.6 36.352L237.448 47.424ZM259.016 47.424H242.952C244.317 46.016 245 44.4373 245 42.688C245 41.9627 244.893 41.2587 244.68 40.576L236.936 17.472L229.384 39.936H223.048C225.907 38.016 227.891 35.4347 229 32.192L239.624 0.511997L252.744 39.488C253.896 42.816 255.987 45.4613 259.016 47.424Z" fill="#DF9BE5"/>
<path d="M280.755 47.424H264.627C267.358 45.2907 268.723 42.688 268.723 39.616V24.768L260.595 8.064C259.187 5.03467 256.947 2.496 253.875 0.447998H269.939C268.872 1.64266 268.339 2.96533 268.339 4.416C268.339 5.22667 268.531 6.03733 268.915 6.848L275.123 19.648L281.779 7.232C282.163 6.37867 282.355 5.52533 282.355 4.672C282.355 3.09333 281.715 1.68533 280.435 0.447998H291.763C288.648 2.368 286.216 4.94933 284.467 8.192L276.659 22.848V39.616C276.659 41.152 277.022 42.6027 277.747 43.968C278.472 45.3333 279.475 46.4853 280.755 47.424Z" fill="#DF9BE5"/>
<path d="M79.5987 23.1254C79.8241 23.3638 79.8075 24.0033 79.4848 24.1456C74.1807 24.4363 69.7439 28.4727 69.3987 33.8628C69.3761 34.0876 69.3862 34.2988 69.2148 34.4477C69.0279 34.5936 68.6513 34.6114 68.4176 34.501C68.2776 34.4358 68.2082 34.3172 68.1797 34.1546C67.9353 28.7391 63.572 24.428 58.1689 24.1824C57.9056 24.1385 57.8 23.8663 57.8 23.6219C57.7946 23.3111 57.905 23.0495 58.2075 23.0074C63.4718 22.7582 67.7912 18.628 68.1471 13.3471C68.1702 13.1199 68.1572 12.9094 68.325 12.7557C68.5558 12.5695 69.1234 12.5671 69.2949 12.8406C69.6632 18.1701 73.5117 22.5506 78.9515 22.9676C79.1651 22.9866 79.4557 22.983 79.5921 23.1195L79.5987 23.1254Z" fill="#DF9BE5"/>
</svg>
